#!OML:ASF Y:\EmotionMaleHayes\Project 1\Capture day 1\Session 1\Male1.ASF
:FULLY-SPECIFIED
:DEGREES
221
root 7.99826 17.0041 0.274168 265.682 84.5909 265.771
lowerback 11.3127 1.48899 2.04764
upperback 6.08181 2.50602 3.10703
thorax -0.0492449 1.37974 1.7908
lowerneck -23.7051 0.0854306 3.82891
upperneck 30.6899 -0.288361 -1.91342
head 14.5528 0.224812 -1.45248
rclavicle -1.71949e-014 2.78299e-015
rhumerus -42.102 3.75695 -77.6138
rradius 46.4632
rwrist -5.61839
rhand -21.1247 -27.1806
rfingers 7.12502
rthumb 5.25392 -57.0955
lclavicle -1.71949e-014 2.78299e-015
lhumerus -38.4194 -29.3137 96.4288
lradius 54.4437
lwrist 11.5294
lhand -27.3811 -24.9652
lfingers 7.12502
lthumb -0.788166 5.0131
rfemur -0.969313 -4.60582 27.46
rtibia 15.687
rfoot -19.8653 -3.46642
rtoes -6.34288
lfemur -18.2554 4.91674 -13.0657
ltibia 65.5973
lfoot -10.1838 3.48537
ltoes -17.7999
222
root 8.22405 17.058 0.290864 266.506 84.0538 266.477
lowerback 11.4523 1.64561 2.47867
upperback 5.91543 2.76675 3.24405
thorax -0.289161 1.51441 1.65303
lowerneck -23.8749 -0.0442893 3.7498
upperneck 31.019 -0.395007 -2.02478
head 14.7324 0.164218 -1.50981
rclavicle 9.74045e-015 -7.15625e-015
rhumerus -40.7321 3.5506 -78.7924
rradius 47.1352
rwrist -6.56497
rhand -21.1492 -27.0078
rfingers 7.12502
rthumb 5.23032 -56.9233
lclavicle 9.74045e-015 -7.15625e-015
lhumerus -39.2481 -28.2429 97.1696
lradius 50.947
lwrist 12.3479
lhand -27.1395 -23.9762
lfingers 7.12502
lthumb -0.554837 6.00278
rfemur 0.767746 -4.64005 28.0178
rtibia 13.8944
rfoot -20.0383 -3.16377
rtoes -6.25103
lfemur -20.4728 5.027 -12.4912
ltibia 64.7003
lfoot -10.8798 3.65232
ltoes -16.0585
223
root 8.44971 17.1044 0.307185 268.264 83.2997 268.168
lowerback 11.6784 1.85849 3.20536
upperback 5.70404 3.14152 3.38229
thorax -0.604569 1.70892 1.33229
lowerneck -23.7762 -0.227646 3.71837
upperneck 31.158 -0.604439 -2.09826
head 14.7643 0.0686579 -1.57516
rclavicle 6.95746e-015 4.37326e-015
rhumerus -39.4864 3.57264 -80.1019
rradius 47.8679
rwrist -7.58441
rhand -21.1951 -27.0737
rfingers 7.12502
rthumb 5.18601 -56.9903
lclavicle 6.95746e-015 4.37326e-015
lhumerus -40.1912 -27.1396 97.727
lradius 47.8168
lwrist 13.1909
lhand -27.2544 -23.6081
lfingers 7.12502
lthumb -0.665835 6.37063
rfemur 2.51494 -4.64429 28.8413
rtibia 12.1429
rfoot -19.9941 -2.67072
rtoes -5.12644
lfemur -22.4647 5.24127 -11.6204
ltibia 63.4635
lfoot -11.3743 4.12776
ltoes -15.6637
224
root 8.68083 17.1434 0.318151 270.235 82.7635 270.09
lowerback 11.8654 2.10332 3.77969
upperback 5.52381 3.54125 3.43689
thorax -0.862145 1.91127 1.0076
lowerneck -23.6989 -0.466753 3.47405
upperneck 31.2837 -0.903927 -1.91164
head 14.7948 -0.0530449 -1.51344
rclavicle 2.79292e-014 2.94201e-014
rhumerus -38.2917 3.91296 -81.4626
rradius 48.7648
rwrist -8.65026
rhand -20.958 -27.9692
rfingers 7.12502
rthumb 5.41494 -57.88
lclavicle 2.79292e-014 2.94201e-014
lhumerus -41.0506 -25.7843 98.0199
lradius 45.0557
lwrist 13.7753
lhand -27.3536 -23.6486
lfingers 7.12502
lthumb -0.761586 6.32976
rfemur 4.17858 -5.06501 29.23
rtibia 10.604
rfoot -19.9175 -1.71166
rtoes -3.75297
lfemur -24.1779 5.3553 -11.028
ltibia 61.7739
lfoot -11.9163 4.82221
ltoes -16.0254
225
root 8.91834 17.1716 0.326389 272.997 82.2932 272.763
lowerback 11.835 2.35221 4.21913
upperback 5.46522 3.91803 3.48912
thorax -0.87692 2.10422 0.772218
lowerneck -23.8439 -0.642084 3.31189
upperneck 31.4602 -1.09353 -1.90505
head 14.9007 -0.146186 -1.52291
rclavicle -3.43897e-014 0
rhumerus -36.8255 4.66293 -82.7878
rradius 49.7029
rwrist -9.82648
rhand -20.4927 -28.8229
rfingers 7.12502
rthumb 5.86412 -58.7218
lclavicle -3.43897e-014 0
lhumerus -41.9331 -24.0562 97.9444
lradius 43.027
lwrist 14.2472
lhand -27.1094 -23.8104
lfingers 7.12502
lthumb -0.525764 6.16872
rfemur 5.68231 -5.58563 29.4403
rtibia 9.29831
rfoot -19.7302 -0.506139
rtoes -2.94314
lfemur -25.7386 5.49136 -10.502
ltibia 59.6858
lfoot -12.4248 5.71433
ltoes -16.5112
